<?xml version="1.0" encoding="iso-8859-1"?>
<!-- Generator: Adobe Illustrator 19.0.0, SVG Export Plug-In . SVG Version: 6.00 Build 0)  -->
<svg version="1.1" id="Layer_1" xmlns="http://www.w3.org/2000/svg" xmlns:xlink="http://www.w3.org/1999/xlink" x="0px" y="0px"
	 viewBox="0 0 403.68 403.68" style="enable-background:new 0 0 403.68 403.68;" xml:space="preserve">
<g>
	<g>
		<path style="fill:#CCCCCC;" d="M380,229.09H101.68h-78C10.6,229.09,0,239.69,0,252.77v54.64c0,13.08,10.6,23.68,23.68,23.68h78
			H380c13.08,0,23.68-10.6,23.68-23.68v-54.64C403.68,239.69,393.08,229.09,380,229.09z"/>
		<path style="fill:#CCCCCC;" d="M380,86.09H101.68h-78C10.6,86.09,0,96.69,0,109.77v54.64c0,13.08,10.6,23.68,23.68,23.68h78H380
			c13.08,0,23.68-10.6,23.68-23.68v-54.64C403.68,96.69,393.08,86.09,380,86.09z"/>
	</g>
	<path style="fill:#F9A18A;" d="M101.68,215.59v102h-78C10.6,317.59,0,306.99,0,293.91v-54.64c0-13.08,10.6-23.68,23.68-23.68
		H101.68z"/>
	<path style="fill:#88C5FC;" d="M403.68,239.27v54.64c0,13.08-10.6,23.68-23.68,23.68H101.68v-102H380
		C393.08,215.59,403.68,226.19,403.68,239.27z"/>
	<path style="fill:#88C5FC;" d="M403.68,96.27v54.64c0,13.08-10.6,23.68-23.68,23.68H101.68v-102H380
		C393.08,72.59,403.68,83.19,403.68,96.27z"/>
	<path style="fill:#F9A18A;" d="M101.68,72.59v102h-78C10.6,174.59,0,163.99,0,150.91V96.27c0-13.08,10.6-23.68,23.68-23.68H101.68z
		"/>
	<path style="fill:#FFFFFF;" d="M70.895,155.091H32.463v-6.133c0-10.596,8.62-19.216,19.216-19.216s19.216,8.62,19.216,19.216
		C70.895,148.958,70.895,155.091,70.895,155.091z"/>
	<path style="fill:#FFFFFF;" d="M51.679,133.008c-10.596,0-19.216-8.62-19.216-19.216s8.62-19.216,19.216-19.216
		s19.216,8.62,19.216,19.216S62.275,133.008,51.679,133.008z"/>
	<path style="fill:#FFFFFF;" d="M155.678,280.418c-7.624,0-13.826-6.202-13.826-13.826s6.202-13.826,13.826-13.826
		s13.826,6.202,13.826,13.826S163.302,280.418,155.678,280.418z"/>
	<path style="fill:#FFFFFF;" d="M47.189,263.678H35.738v-13.742c0-9.893,8.048-17.941,17.941-17.941s17.941,8.048,17.941,17.941
		H60.168c0-3.578-2.911-6.489-6.489-6.489s-6.489,2.911-6.489,6.489v13.742H47.189z"/>
	<path style="fill:#FFFFFF;" d="M71.62,295.463H35.738v-31.785H71.62V295.463z"/>
	<path style="fill:#FFFFFF;" d="M283.679,280.418c-7.624,0-13.826-6.202-13.826-13.826s6.203-13.826,13.826-13.826
		s13.826,6.202,13.826,13.826S291.303,280.418,283.679,280.418z"/>
	<path style="fill:#FFFFFF;" d="M347.679,137.418c-7.624,0-13.826-6.202-13.826-13.826s6.202-13.826,13.826-13.826
		s13.826,6.202,13.826,13.826C361.505,131.216,355.303,137.418,347.679,137.418z"/>
	<path style="fill:#FFFFFF;" d="M219.679,280.418c-7.624,0-13.826-6.202-13.826-13.826s6.202-13.826,13.826-13.826
		s13.826,6.202,13.826,13.826S227.303,280.418,219.679,280.418z"/>
	<path style="fill:#FFFFFF;" d="M155.678,137.418c-7.624,0-13.826-6.202-13.826-13.826s6.202-13.826,13.826-13.826
		s13.826,6.202,13.826,13.826C169.504,131.216,163.302,137.418,155.678,137.418z"/>
	<path style="fill:#FFFFFF;" d="M283.679,137.418c-7.624,0-13.826-6.202-13.826-13.826s6.203-13.826,13.826-13.826
		s13.826,6.202,13.826,13.826C297.505,131.216,291.303,137.418,283.679,137.418z"/>
	<path style="fill:#FFFFFF;" d="M219.679,137.418c-7.624,0-13.826-6.202-13.826-13.826s6.202-13.826,13.826-13.826
		s13.826,6.202,13.826,13.826C233.505,131.216,227.303,137.418,219.679,137.418z"/>
	<g>
		<path style="opacity:0.23;fill:#F2F2F2;enable-background:new    ;" d="M403.68,96.27v54.64c0,13.08-10.6,23.68-23.68,23.68
			H260.27l53.08-102H380C393.08,72.59,403.68,83.19,403.68,96.27z"/>
		<path style="opacity:0.23;fill:#F2F2F2;enable-background:new    ;" d="M403.68,239.27v54.64c0,13.08-10.6,23.68-23.68,23.68
			H185.86l53.08-102H380C393.08,215.59,403.68,226.19,403.68,239.27z"/>
		<path style="opacity:0.23;fill:#F2F2F2;enable-background:new    ;" d="M23.68,215.59h16.95l-20.79,39.95L0,293.67v-54.4
			C0,226.19,10.6,215.59,23.68,215.59z"/>
		<path style="opacity:0.23;fill:#F2F2F2;enable-background:new    ;" d="M115.04,72.59l-13.36,25.68l-7.72,14.83l-11.83,22.74
			l-20.17,38.75H23.68C10.6,174.59,0,163.99,0,150.91V96.27c0-13.08,10.6-23.68,23.68-23.68H115.04z"/>
	</g>
</g>
<g>
</g>
<g>
</g>
<g>
</g>
<g>
</g>
<g>
</g>
<g>
</g>
<g>
</g>
<g>
</g>
<g>
</g>
<g>
</g>
<g>
</g>
<g>
</g>
<g>
</g>
<g>
</g>
<g>
</g>
</svg>
